<?xml version="1.0" standalone="no"?>
<!DOCTYPE svg PUBLIC "-//W3C//DTD SVG 20010904//EN"
 "http://www.w3.org/TR/2001/REC-SVG-20010904/DTD/svg10.dtd">
<svg version="1.0" xmlns="http://www.w3.org/2000/svg"
 width="50.000000pt" height="50.000000pt" viewBox="0 0 50.000000 50.000000"
 preserveAspectRatio="xMidYMid meet">

<g transform="translate(0.000000,50.000000) scale(0.100000,-0.100000)"
fill="#000000" stroke="none">
<path d="M240 485 c0 -8 5 -15 10 -15 6 0 10 7 10 15 0 8 -4 15 -10 15 -5 0
-10 -7 -10 -15z"/>
<path d="M60 482 c0 -4 16 -23 35 -42 36 -35 47 -31 19 8 -16 24 -54 48 -54
34z"/>
<path d="M395 460 c-16 -16 -25 -33 -22 -37 8 -7 67 45 67 59 0 16 -17 8 -45
-22z"/>
<path d="M219 430 c-98 -29 -129 -121 -72 -218 21 -35 29 -64 33 -122 l5 -75
65 0 65 0 5 80 c5 63 12 90 33 126 31 52 35 105 12 149 -24 46 -95 75 -146 60z
m66 -44 c63 -27 70 -75 25 -161 -16 -31 -30 -66 -30 -76 0 -14 -7 -19 -30 -19
-23 0 -30 5 -30 19 0 10 -13 43 -30 74 -45 85 -38 136 23 162 40 18 32 17 72
1z"/>
<path d="M420 300 c0 -5 18 -10 40 -10 22 0 40 5 40 10 0 6 -18 10 -40 10 -22
0 -40 -4 -40 -10z"/>
<path d="M18 293 c12 -2 32 -2 45 0 12 2 2 4 -23 4 -25 0 -35 -2 -22 -4z"/>
<path d="M90 145 c-19 -19 -30 -38 -26 -42 3 -4 23 9 42 29 20 19 32 38 27 41
-6 4 -25 -9 -43 -28z"/>
<path d="M402 143 c21 -20 41 -34 44 -30 10 10 -46 67 -65 67 -10 0 -3 -13 21
-37z"/>
</g>
</svg>
