<?xml version="1.0" standalone="no"?>
<!DOCTYPE svg PUBLIC "-//W3C//DTD SVG 20010904//EN"
 "http://www.w3.org/TR/2001/REC-SVG-20010904/DTD/svg10.dtd">
<svg version="1.0" xmlns="http://www.w3.org/2000/svg"
 width="100.000000pt" height="100.000000pt" viewBox="0 0 100.000000 100.000000"
 preserveAspectRatio="xMidYMid meet">

<g transform="translate(0.000000,100.000000) scale(0.100000,-0.100000)"
fill="#000000" stroke="none">
<path d="M383 986 c-219 -53 -383 -261 -383 -486 0 -270 230 -500 500 -500
270 0 500 230 500 500 0 274 -233 503 -508 499 -31 0 -80 -6 -109 -13z m232
-41 c82 -22 144 -58 208 -122 64 -64 100 -126 122 -208 41 -159 -3 -319 -122
-438 -119 -119 -279 -163 -438 -122 -82 22 -144 58 -208 122 -119 119 -163
279 -122 438 22 82 58 144 122 208 119 119 279 163 438 122z"/>
<path d="M260 495 l0 -325 60 0 60 0 2 201 3 200 117 -198 116 -198 61 -3 61
-3 0 326 0 325 -60 0 -60 0 -2 -199 -3 -198 -115 196 -115 196 -63 3 -62 3 0
-326z"/>
</g>
</svg>
