<?xml version="1.0" standalone="no"?>
<!DOCTYPE svg PUBLIC "-//W3C//DTD SVG 20010904//EN"
 "http://www.w3.org/TR/2001/REC-SVG-20010904/DTD/svg10.dtd">
<svg version="1.0" xmlns="http://www.w3.org/2000/svg"
 width="50.000000pt" height="50.000000pt" viewBox="0 0 50.000000 50.000000"
 preserveAspectRatio="xMidYMid meet">

<g transform="translate(0.000000,50.000000) scale(0.100000,-0.100000)"
fill="#000000" stroke="none">
<path d="M380 385 l0 -55 50 0 50 0 0 55 0 55 -50 0 -50 0 0 -55z"/>
<path d="M266 405 c-43 -26 -56 -41 -56 -67 0 -23 29 -23 46 -1 7 10 16 15 20
10 4 -4 -5 -20 -19 -35 -28 -29 -35 -52 -16 -52 17 0 97 61 114 86 8 13 15 37
15 54 0 27 -3 30 -32 30 -18 0 -51 -11 -72 -25z"/>
<path d="M160 230 l0 -80 90 0 90 0 0 75 c0 46 -4 75 -11 75 -6 0 -26 -12 -45
-26 -41 -32 -69 -26 -60 11 6 23 4 25 -29 25 l-35 0 0 -80z"/>
<path d="M45 154 c-14 -31 -25 -67 -25 -80 l0 -24 225 0 c261 0 252 -4 213 93
-25 61 -27 62 -67 65 -35 3 -41 0 -41 -16 0 -11 7 -22 15 -26 8 -3 15 -10 15
-16 0 -6 -47 -10 -130 -10 -83 0 -130 4 -130 10 0 6 7 13 15 16 8 4 15 15 15
25 0 15 -7 19 -40 19 -39 0 -41 -1 -65 -56z"/>
</g>
</svg>
